<svg xmlns="http://www.w3.org/2000/svg" viewBox="0 -960 960 960" width="100%">
    <path fill="#FFF" d="M358.923-160h240.616q10 0 16.923-5.769 6.923-5.769 9.999-14.231l46.154-183.846H285.846L332-180q3.077 8.462 10 14.231T358.923-160Zm0 40q-23.385 0-41.308-13.923t-24.154-36.308l-48.846-193.615h469.231L665-170.231q-6.231 21.616-24.154 35.924Q622.923-120 599.539-120H358.923ZM227.692-403.846h504.616q12.307 0 20-7.692Q760-419.231 760-430.769v-68.462H200v68.462q0 11.538 8.077 19.231 8.077 7.692 19.615 7.692Zm251.539-231.539q0-81.538 61.923-138.846 61.923-57.308 144.231-65-8.462 75.385-60.077 131.385-51.615 56-126.077 70.769v97.846H800v108.462q0 27.615-20.038 47.269-20.039 19.654-47.654 19.654H227.692q-27.615 0-47.654-19.654Q160-403.154 160-430.769v-108.462h299.231v-97.846q-74.462-14.769-126.077-70.385-51.616-55.615-60.077-131.769 81.538 7.692 143.846 65.385 62.308 57.692 62.308 138.461Z" />
</svg>
