<svg xmlns="http://www.w3.org/2000/svg" viewBox="0 -960 960 960" width="100%">
    <path fill="#FFF" d="M763.077-502q-6.923-113.154-86.115-192.346-79.193-79.192-192.347-86.115v-40.001q65 3.077 121.654 28.885 56.654 25.808 99.385 68.538 42.731 42.731 68.539 99.385Q800-567 803.077-502h-40Zm-160 0q-6.923-46.154-39.615-79.231-32.693-33.077-78.847-39.23v-40.001q63 6.154 107.27 50.808Q636.154-565 643.077-502h-40Zm154.154 342q-101.154 0-207.385-50.654-106.231-50.653-197.769-142.192-90.77-91.539-141.423-197.385Q160-656.077 160-757.231q0-18 12-30.385Q184-800 202-800h98.923q16.308 0 28.462 10.269t16.461 26.346L365.692-668q2.77 16.769-1 29.308-3.769 12.538-13.307 20.538l-87.77 81.846q24.616 44.693 54.424 83.039 29.807 38.346 63.576 72.654 34.847 34.846 75 64.807 40.154 29.962 88.154 56.577l85.539-87.077q9.769-10.538 21.961-13.884 12.192-3.347 26.962-1.347l84.154 17.231q16.308 4 26.461 16.423Q800-315.462 800-299.385V-202q0 18-12.384 30-12.385 12-30.385 12Z" />
</svg>
